<mxfile host="app.diagrams.net" modified="2023-06-03T16:29:26.666Z" agent="Mozilla/5.0 (Windows NT 10.0; Win64; x64) AppleWebKit/537.36 (KHTML, like Gecko) Chrome/112.0.0.0 Safari/537.36 OPR/98.0.0.0" version="21.3.6" etag="7kJDmCwWUZbWeL4F8uzN" type="github">
  <diagram name="Page-1" id="FwjaoeTnVxYzZ-4w48xu">
    <mxGraphModel>
      <root>
        <mxCell id="0" />
        <mxCell id="1" parent="0" />
      </root>
    </mxGraphModel>
  </diagram>
</mxfile>
